<?xml version="1.0" encoding="UTF-8" standalone="no"?>
<!-- Generator: Adobe Illustrator 15.0.0, SVG Export Plug-In . SVG Version: 6.00 Build 0)  -->

<svg
   xmlns:dc="http://purl.org/dc/elements/1.1/"
   xmlns:cc="http://creativecommons.org/ns#"
   xmlns:rdf="http://www.w3.org/1999/02/22-rdf-syntax-ns#"
   xmlns:svg="http://www.w3.org/2000/svg"
   xmlns="http://www.w3.org/2000/svg"
   xmlns:sodipodi="http://sodipodi.sourceforge.net/DTD/sodipodi-0.dtd"
   xmlns:inkscape="http://www.inkscape.org/namespaces/inkscape"
   version="1.1"
   x="0px"
   y="0px"
   width="580px"
   height="580px"
   viewBox="0 0 580 580"
   enable-background="new 0 0 580 580"
   xml:space="preserve"
   id="svg3000"
   inkscape:version="0.48.4 r9939"
   sodipodi:docname="extract_node_light.svg"
   inkscape:export-filename="C:\Users\simon\git\osmeditor4android\res\drawable-xhdpi\extract_node_light.png"
   inkscape:export-xdpi="9.9300003"
   inkscape:export-ydpi="9.9300003"><sodipodi:namedview
   pagecolor="#ffffff"
   bordercolor="#666666"
   borderopacity="1"
   objecttolerance="10"
   gridtolerance="10"
   guidetolerance="10"
   inkscape:pageopacity="0"
   inkscape:pageshadow="2"
   inkscape:window-width="1725"
   inkscape:window-height="1026"
   id="namedview3009"
   showgrid="false"
   inkscape:snap-nodes="false"
   inkscape:zoom="1.0965517"
   inkscape:cx="116.33698"
   inkscape:cy="349.82762"
   inkscape:window-x="33"
   inkscape:window-y="70"
   inkscape:window-maximized="0"
   inkscape:current-layer="svg3000" /><metadata
   id="metadata3013"><rdf:RDF><cc:Work
       rdf:about=""><dc:format>image/svg+xml</dc:format><dc:type
         rdf:resource="http://purl.org/dc/dcmitype/StillImage" /><dc:title></dc:title></cc:Work></rdf:RDF></metadata><defs
   id="defs3011"><marker
     inkscape:stockid="Arrow1Send"
     orient="auto"
     refY="0.0"
     refX="0.0"
     id="Arrow1Send"
     style="overflow:visible;"><path
       id="path5087"
       d="M 0.0,0.0 L 5.0,-5.0 L -12.5,0.0 L 5.0,5.0 L 0.0,0.0 z "
       style="fill-rule:evenodd;stroke:#000000;stroke-width:1.0pt;"
       transform="scale(0.2) rotate(180) translate(6,0)" /></marker><marker
     inkscape:stockid="Arrow2Mend"
     orient="auto"
     refY="0.0"
     refX="0.0"
     id="Arrow2Mend"
     style="overflow:visible;"><path
       id="path5099"
       style="fill-rule:evenodd;stroke-width:0.62500000;stroke-linejoin:round;"
       d="M 8.7185878,4.0337352 L -2.2072895,0.016013256 L 8.7185884,-4.0017078 C 6.9730900,-1.6296469 6.9831476,1.6157441 8.7185878,4.0337352 z "
       transform="scale(0.6) rotate(180) translate(0,0)" /></marker><marker
     style="overflow:visible"
     id="DotM"
     refX="0.0"
     refY="0.0"
     orient="auto"
     inkscape:stockid="DotM"><path
       transform="scale(0.4) translate(7.4, 1)"
       style="fill-rule:evenodd;stroke:#000000;stroke-width:1.0pt"
       d="M -2.5,-1.0 C -2.5,1.7600000 -4.7400000,4.0 -7.5,4.0 C -10.260000,4.0 -12.5,1.7600000 -12.5,-1.0 C -12.5,-3.7600000 -10.260000,-6.0 -7.5,-6.0 C -4.7400000,-6.0 -2.5,-3.7600000 -2.5,-1.0 z "
       id="path3896" /></marker><marker
     inkscape:stockid="DotS"
     orient="auto"
     refY="0.0"
     refX="0.0"
     id="DotS"
     style="overflow:visible"><path
       id="path3836"
       d="M -2.5,-1.0 C -2.5,1.7600000 -4.7400000,4.0 -7.5,4.0 C -10.260000,4.0 -12.5,1.7600000 -12.5,-1.0 C -12.5,-3.7600000 -10.260000,-6.0 -7.5,-6.0 C -4.7400000,-6.0 -2.5,-3.7600000 -2.5,-1.0 z "
       style="fill-rule:evenodd;stroke:#000000;stroke-width:1.0pt"
       transform="scale(0.2) translate(7.4, 1)" /></marker><marker
     inkscape:stockid="DotL"
     orient="auto"
     refY="0.0"
     refX="0.0"
     id="DotL"
     style="overflow:visible"><path
       id="path3830"
       d="M -2.5,-1.0 C -2.5,1.7600000 -4.7400000,4.0 -7.5,4.0 C -10.260000,4.0 -12.5,1.7600000 -12.5,-1.0 C -12.5,-3.7600000 -10.260000,-6.0 -7.5,-6.0 C -4.7400000,-6.0 -2.5,-3.7600000 -2.5,-1.0 z "
       style="fill-rule:evenodd;stroke:#000000;stroke-width:1.0pt"
       transform="scale(0.8) translate(7.4, 1)" /></marker><marker
     inkscape:stockid="Arrow1Mstart"
     orient="auto"
     refY="0.0"
     refX="0.0"
     id="Arrow1Mstart"
     style="overflow:visible"><path
       id="path3775"
       d="M 0.0,0.0 L 5.0,-5.0 L -12.5,0.0 L 5.0,5.0 L 0.0,0.0 z "
       style="fill-rule:evenodd;stroke:#000000;stroke-width:1.0pt"
       transform="scale(0.4) translate(10,0)" /></marker><marker
     style="overflow:visible;"
     id="Arrow2Send"
     refX="0.0"
     refY="0.0"
     orient="auto"
     inkscape:stockid="Arrow2Send"><path
       transform="scale(0.3) rotate(180) translate(-2.3,0)"
       d="M 8.7185878,4.0337352 L -2.2072895,0.016013256 L 8.7185884,-4.0017078 C 6.9730900,-1.6296469 6.9831476,1.6157441 8.7185878,4.0337352 z "
       style="fill-rule:evenodd;stroke-width:0.62500000;stroke-linejoin:round;"
       id="path3802" /></marker><marker
     style="overflow:visible"
     id="Arrow2Sstart"
     refX="0.0"
     refY="0.0"
     orient="auto"
     inkscape:stockid="Arrow2Sstart"><path
       transform="scale(0.3) translate(-2.3,0)"
       d="M 8.7185878,4.0337352 L -2.2072895,0.016013256 L 8.7185884,-4.0017078 C 6.9730900,-1.6296469 6.9831476,1.6157441 8.7185878,4.0337352 z "
       style="fill-rule:evenodd;stroke-width:0.62500000;stroke-linejoin:round"
       id="path3799" /></marker><marker
     style="overflow:visible;"
     id="Arrow2Lend"
     refX="0.0"
     refY="0.0"
     orient="auto"
     inkscape:stockid="Arrow2Lend"><path
       transform="scale(1.1) rotate(180) translate(1,0)"
       d="M 8.7185878,4.0337352 L -2.2072895,0.016013256 L 8.7185884,-4.0017078 C 6.9730900,-1.6296469 6.9831476,1.6157441 8.7185878,4.0337352 z "
       style="fill-rule:evenodd;stroke-width:0.62500000;stroke-linejoin:round;"
       id="path3790" /></marker><marker
     style="overflow:visible;"
     id="Arrow2Sendy"
     refX="0.0"
     refY="0.0"
     orient="auto"
     inkscape:stockid="Arrow2Sendy"><path
       transform="scale(0.3) rotate(180) translate(-2.3,0)"
       d="M 8.7185878,4.0337352 L -2.2072895,0.016013256 L 8.7185884,-4.0017078 C 6.9730900,-1.6296469 6.9831476,1.6157441 8.7185878,4.0337352 z "
       style="stroke-linejoin:round;stroke:#cccccc;stroke-width:0.62500000;fill:#cccccc;fill-rule:evenodd"
       id="path4779" /></marker><marker
     inkscape:stockid="DotS3"
     orient="auto"
     refY="0.0"
     refX="0.0"
     id="DotS3"
     style="overflow:visible"><path
       id="path6167"
       d="M -2.5,-1.0 C -2.5,1.7600000 -4.7400000,4.0 -7.5,4.0 C -10.260000,4.0 -12.5,1.7600000 -12.5,-1.0 C -12.5,-3.7600000 -10.260000,-6.0 -7.5,-6.0 C -4.7400000,-6.0 -2.5,-3.7600000 -2.5,-1.0 z "
       style="stroke:#cccccc;stroke-width:1.0pt;fill:#cccccc;fill-rule:evenodd"
       transform="scale(0.2) translate(7.4, 1)" /></marker><marker
     style="overflow:visible"
     id="DotMJ"
     refX="0.0"
     refY="0.0"
     orient="auto"
     inkscape:stockid="DotMJ"><path
       transform="scale(0.4) translate(7.4, 1)"
       style="stroke:#cccccc;stroke-width:1.0pt;fill:#cccccc;fill-rule:evenodd"
       d="M -2.5,-1.0 C -2.5,1.7600000 -4.7400000,4.0 -7.5,4.0 C -10.260000,4.0 -12.5,1.7600000 -12.5,-1.0 C -12.5,-3.7600000 -10.260000,-6.0 -7.5,-6.0 C -4.7400000,-6.0 -2.5,-3.7600000 -2.5,-1.0 z "
       id="path4311" /></marker></defs>
<g
   style="stroke:none;fill:none"
   transform="translate(0.0735,-0.43022222)"
   id="Layer_1">
	<g
   style="stroke:none;fill:none"
   id="Layer_2">
		<g
   style="stroke:none;fill:none"
   id="g1327">
			<path
   style="fill:none;stroke:none;stroke-width:3.40799999000000000"
   inkscape:connector-curvature="0"
   d="M 66.275,1.768 C 24.94,1.768 1.704,23.139 1.704,66.804 v 450.123 c 0,40.844 20.895,62.229 62.192,62.229 H 515.92 c 41.307,0 62.229,-20.315 62.229,-62.229 V 66.804 c 0,-42.602 -20.923,-65.036 -63.521,-65.036 -0.003,0 -448.495,-0.143 -448.353,0 z"
   id="path1329" />
		</g>
	</g>
</g>

<path
   style="fill:#333333;fill-opacity:0.60000002;stroke:#333333;stroke-width:1px;stroke-linecap:butt;stroke-linejoin:miter;stroke-opacity:0.60000001999999997"
   d="M 432.75 57.4375 C 432.75 57.4375 398.91579 119.56365 415.96875 164.15625 C 435.03388 214.0106 438.42084 224.77319 385.4375 239.6875 C 377.51767 228.50168 364.4673 221.1875 349.71875 221.1875 C 334.5198 221.1875 321.14844 228.95015 313.3125 240.71875 C 313.29969 240.73798 313.29403 240.762 313.28125 240.78125 C 309.72719 246.13726 307.31153 252.30752 306.40625 258.96875 C 285.10573 264.02088 260.78558 269.8823 232.34375 277.21875 C 27.288814 330.11183 219.58165 297.28774 204.71875 401.25 C 189.85584 505.21227 48.625 508.875 48.625 508.875 L 224.09375 507.96875 C 224.09375 507.96875 293.23085 513.43102 308.09375 409.46875 C 320.95047 319.53924 211.92209 323.07469 314.96875 291.4375 C 322.95816 301.89943 335.53867 308.65625 349.71875 308.65625 C 372.11035 308.65625 390.55627 291.82572 393.125 270.125 C 580.55284 220.01617 485.28919 204.45127 465.0625 160.5 C 442.31036 111.06111 461.3125 58.375 461.3125 58.375 L 432.75 57.4375 z M 182.375 119.46875 C 164.74704 119.46875 150.46875 133.74704 150.46875 151.375 C 150.46875 169.00296 164.74704 183.3125 182.375 183.3125 C 193.02955 183.3125 202.45266 178.05474 208.25 170.03125 C 208.33331 169.91595 208.4182 169.80394 208.5 169.6875 C 212.14398 164.5008 214.3125 158.1953 214.3125 151.375 C 214.3125 133.74704 200.00296 119.46875 182.375 119.46875 z "
   id="path3797" /><path
   style="fill:none;stroke:#333333;stroke-width:13.83129978000000000;stroke-linecap:butt;stroke-linejoin:miter;stroke-miterlimit:4;stroke-opacity:0.60000002;stroke-dasharray:none"
   d="M 310.90921,235.21736 213.46188,168.77633"
   id="path7191"
   inkscape:connector-curvature="0" /></svg>