<?xml version="1.0" encoding="UTF-8" standalone="no"?>
<svg
   xmlns:dc="http://purl.org/dc/elements/1.1/"
   xmlns:cc="http://creativecommons.org/ns#"
   xmlns:rdf="http://www.w3.org/1999/02/22-rdf-syntax-ns#"
   xmlns:svg="http://www.w3.org/2000/svg"
   xmlns="http://www.w3.org/2000/svg"
   xmlns:sodipodi="http://sodipodi.sourceforge.net/DTD/sodipodi-0.dtd"
   xmlns:inkscape="http://www.inkscape.org/namespaces/inkscape"
   fill="#000000"
   height="36"
   viewBox="0 0 24 24"
   width="36"
   id="svg2"
   version="1.1"
   inkscape:version="0.48.4 r9939"
   sodipodi:docname="ic_content_cut_dark_36px.svg"
   inkscape:export-filename="C:\Users\simon\git\osmeditor4android\src\main\res\drawable-xhdpi\ic_content_cut_dark_36px.png"
   inkscape:export-xdpi="160"
   inkscape:export-ydpi="160">
  <metadata
     id="metadata18">
    <rdf:RDF>
      <cc:Work
         rdf:about="">
        <dc:format>image/svg+xml</dc:format>
        <dc:type
           rdf:resource="http://purl.org/dc/dcmitype/StillImage" />
        <dc:title></dc:title>
      </cc:Work>
    </rdf:RDF>
  </metadata>
  <defs
     id="defs16" />
  <sodipodi:namedview
     pagecolor="#ffffff"
     bordercolor="#666666"
     borderopacity="1"
     objecttolerance="10"
     gridtolerance="10"
     guidetolerance="10"
     inkscape:pageopacity="0"
     inkscape:pageshadow="2"
     inkscape:window-width="1136"
     inkscape:window-height="887"
     id="namedview14"
     showgrid="false"
     inkscape:zoom="10.66"
     inkscape:cx="6.7898687"
     inkscape:cy="18"
     inkscape:window-x="659"
     inkscape:window-y="190"
     inkscape:window-maximized="0"
     inkscape:current-layer="svg2" />
  <path
     d="M0 0h24v24H0z"
     fill="none"
     id="path4" />
  <circle
     cx="6"
     cy="18"
     fill="none"
     r="2"
     id="circle6" />
  <circle
     cx="12"
     cy="12"
     fill="none"
     r=".5"
     id="circle8" />
  <path
     d="m 14.17551,7.9808379 c -0.21202,-0.460913 -0.331857,-0.9679174 -0.331857,-1.5117948 0,-2.0372358 1.650068,-3.6873046 3.687303,-3.6873046 2.037236,0 3.687305,1.6500688 3.687305,3.6873046 0,2.0372357 -1.650069,3.6873049 -3.687305,3.6873049 -0.543877,0 -1.050882,-0.119838 -1.511795,-0.3318578 L 13.843653,12 l 2.175508,2.17551 c 0.460913,-0.21202 0.967918,-0.331857 1.511795,-0.331857 2.037236,0 3.687305,1.650068 3.687305,3.687304 0,2.037236 -1.650069,3.687304 -3.687305,3.687304 -2.037235,0 -3.687304,-1.650068 -3.687304,-3.687304 0,-0.543877 0.119838,-1.050883 0.331857,-1.511795 L 12,13.843652 5.5472169,20.296435 H 2.7817385 V 19.374609 L 14.17551,7.9808379 z m 3.355446,0.3318574 c 1.014009,0 1.843653,-0.8204252 1.843653,-1.8436522 0,-1.0232271 -0.829644,-1.8436523 -1.843653,-1.8436523 -1.014008,0 -1.843651,0.8204252 -1.843651,1.8436523 0,1.023227 0.829643,1.8436522 1.843651,1.8436522 z m 0,11.0619137 c 1.014009,0 1.843653,-0.820426 1.843653,-1.843653 0,-1.023227 -0.829644,-1.843652 -1.843653,-1.843652 -1.014008,0 -1.843651,0.820425 -1.843651,1.843652 0,1.023227 0.829643,1.843653 1.843651,1.843653 z M 12,12.460912 c 0.258112,0 0.460912,-0.202801 0.460912,-0.460912 0,-0.258111 -0.2028,-0.460913 -0.460912,-0.460913 -0.258111,0 -0.460913,0.202802 -0.460913,0.460913 0,0.258112 0.202802,0.460912 0.460913,0.460912 z M 5.5472169,3.7035646 11.078174,9.2345215 9.2345215,11.078174 2.7817385,4.6253908 V 3.7035646 z"
     id="path12"
     inkscape:connector-curvature="0"
     style="fill:#858585;fill-opacity:1;stroke:none" />
  <circle
     cx="6"
     cy="6"
     fill="none"
     r="2"
     id="circle10" />
</svg>
