<?xml version="1.0" encoding="UTF-8" standalone="no"?>
<!-- Generator: Adobe Illustrator 16.0.0, SVG Export Plug-In . SVG Version: 6.00 Build 0)  -->

<svg
   xmlns:dc="http://purl.org/dc/elements/1.1/"
   xmlns:cc="http://creativecommons.org/ns#"
   xmlns:rdf="http://www.w3.org/1999/02/22-rdf-syntax-ns#"
   xmlns:svg="http://www.w3.org/2000/svg"
   xmlns="http://www.w3.org/2000/svg"
   xmlns:sodipodi="http://sodipodi.sourceforge.net/DTD/sodipodi-0.dtd"
   xmlns:inkscape="http://www.inkscape.org/namespaces/inkscape"
   version="1.1"
   id="Layer_1"
   x="0px"
   y="0px"
   width="512"
   height="512"
   viewBox="0 0 512 512"
   enable-background="new 0 0 512 512"
   xml:space="preserve"
   inkscape:version="0.48.4 r9939"
   sodipodi:docname="locked_opaque.svg"
   inkscape:export-filename="C:\Users\simon\git\osmeditor4android\res\drawable-xhdpi\locked_opaque.png"
   inkscape:export-xdpi="6.328125"
   inkscape:export-ydpi="6.328125"><sodipodi:namedview
   pagecolor="#ffffff"
   bordercolor="#666666"
   borderopacity="1"
   objecttolerance="10"
   gridtolerance="10"
   guidetolerance="10"
   inkscape:pageopacity="0"
   inkscape:pageshadow="2"
   inkscape:window-width="1493"
   inkscape:window-height="947"
   id="namedview5347"
   showgrid="false"
   inkscape:zoom="0.4609375"
   inkscape:cx="-159.45763"
   inkscape:cy="256"
   inkscape:window-x="-32000"
   inkscape:window-y="-32000"
   inkscape:window-maximized="0"
   inkscape:current-layer="Layer_1" /><metadata
   id="metadata5351"><rdf:RDF><cc:Work
       rdf:about=""><dc:format>image/svg+xml</dc:format><dc:type
         rdf:resource="http://purl.org/dc/dcmitype/StillImage" /><dc:title></dc:title></cc:Work></rdf:RDF></metadata><defs
   id="defs5349" />
<path
   d="M 384,224 V 128 C 384,57.438 326.594,0 256,0 185.422,0 128,57.438 128,128 v 96 c -35.344,0 -64,28.656 -64,64 v 160 c 0,35.344 28.656,64 64,64 h 256 c 35.344,0 64,-28.656 64,-64 V 288 c 0,-35.344 -28.656,-64 -64,-64 z M 272,379.094 V 432 c 0,8.844 -7.156,16 -16,16 -8.844,0 -16,-7.156 -16,-16 v -52.906 c -9.391,-5.563 -16,-15.375 -16,-27.094 0,-17.688 14.328,-32 32,-32 17.672,0 32,14.313 32,32 0,11.719 -6.609,21.531 -16,27.094 z M 320,224 H 192 v -96 c 0,-35.313 28.703,-64 64,-64 35.281,0 64,28.688 64,64 v 96 z"
   id="path5345"
   style="fill:#b9121b;fill-opacity:1"
   inkscape:connector-curvature="0" />
</svg>