<?xml version="1.0" encoding="UTF-8" standalone="no"?>
<!-- Generator: Adobe Illustrator 16.0.0, SVG Export Plug-In . SVG Version: 6.00 Build 0)  -->

<svg
   xmlns:dc="http://purl.org/dc/elements/1.1/"
   xmlns:cc="http://creativecommons.org/ns#"
   xmlns:rdf="http://www.w3.org/1999/02/22-rdf-syntax-ns#"
   xmlns:svg="http://www.w3.org/2000/svg"
   xmlns="http://www.w3.org/2000/svg"
   xmlns:sodipodi="http://sodipodi.sourceforge.net/DTD/sodipodi-0.dtd"
   xmlns:inkscape="http://www.inkscape.org/namespaces/inkscape"
   version="1.1"
   id="Layer_1"
   x="0px"
   y="0px"
   width="512px"
   height="512px"
   viewBox="0 0 512 512"
   enable-background="new 0 0 512 512"
   xml:space="preserve"
   inkscape:version="0.48.4 r9939"
   sodipodi:docname="locked.svg"><sodipodi:namedview
   pagecolor="#ffffff"
   bordercolor="#666666"
   borderopacity="1"
   objecttolerance="10"
   gridtolerance="10"
   guidetolerance="10"
   inkscape:pageopacity="0"
   inkscape:pageshadow="2"
   inkscape:window-width="1493"
   inkscape:window-height="947"
   id="namedview5347"
   showgrid="false"
   inkscape:zoom="0.4609375"
   inkscape:cx="-159.45763"
   inkscape:cy="256"
   inkscape:window-x="0"
   inkscape:window-y="0"
   inkscape:window-maximized="0"
   inkscape:current-layer="Layer_1" /><metadata
   id="metadata5351"><rdf:RDF><cc:Work
       rdf:about=""><dc:format>image/svg+xml</dc:format><dc:type
         rdf:resource="http://purl.org/dc/dcmitype/StillImage" /><dc:title></dc:title></cc:Work></rdf:RDF></metadata><defs
   id="defs5349" />
<path
   d="M384,224v-96C384,57.438,326.594,0,256,0c-70.578,0-128,57.438-128,128v96c-35.344,0-64,28.656-64,64v160  c0,35.344,28.656,64,64,64h256c35.344,0,64-28.656,64-64V288C448,252.656,419.344,224,384,224z M272,379.094V432  c0,8.844-7.156,16-16,16s-16-7.156-16-16v-52.906c-9.391-5.563-16-15.375-16-27.094c0-17.688,14.328-32,32-32s32,14.313,32,32  C288,363.719,281.391,373.531,272,379.094z M320,224H192v-96c0-35.313,28.703-64,64-64c35.281,0,64,28.688,64,64V224z"
   id="path5345"
   style="fill:#b9121b;fill-opacity:1" />
</svg>