<?xml version="1.0" encoding="UTF-8" standalone="no"?>
<svg
   xmlns:dc="http://purl.org/dc/elements/1.1/"
   xmlns:cc="http://creativecommons.org/ns#"
   xmlns:rdf="http://www.w3.org/1999/02/22-rdf-syntax-ns#"
   xmlns:svg="http://www.w3.org/2000/svg"
   xmlns="http://www.w3.org/2000/svg"
   xmlns:sodipodi="http://sodipodi.sourceforge.net/DTD/sodipodi-0.dtd"
   xmlns:inkscape="http://www.inkscape.org/namespaces/inkscape"
   version="1.0"
   height="256"
   width="256"
   viewBox="0 0 256 256"
   id="svg857"
   sodipodi:docname="maproulette_small.svg"
   inkscape:export-filename="C:\Users\simon\git\osmeditor4android\src\main\res\drawable-xhdpi\maproulette_small.png"
   inkscape:export-xdpi="13.606299"
   inkscape:export-ydpi="13.606299"
   inkscape:version="0.92.3 (2405546, 2018-03-11)">
  <defs
     id="defs861" />
  <sodipodi:namedview
     pagecolor="#ffffff"
     bordercolor="#666666"
     borderopacity="1"
     objecttolerance="10"
     gridtolerance="10"
     guidetolerance="10"
     inkscape:pageopacity="0"
     inkscape:pageshadow="2"
     inkscape:window-width="1066"
     inkscape:window-height="628"
     id="namedview859"
     showgrid="false"
     inkscape:zoom="0.91"
     inkscape:cx="82.561911"
     inkscape:cy="200.89492"
     inkscape:window-x="234"
     inkscape:window-y="234"
     inkscape:window-maximized="0"
     inkscape:current-layer="svg857" />
  <title
     id="title839">OpenStreetMap way element icon</title>
  <metadata
     id="metadata841">
    <rdf:RDF>
      <cc:Work
         rdf:about="">
        <dc:format>image/svg+xml</dc:format>
        <dc:type
           rdf:resource="http://purl.org/dc/dcmitype/StillImage" />
        <dc:title>OpenStreetMap way element icon</dc:title>
        <cc:license
           rdf:resource="http://creativecommons.org/licenses/by-sa/4.0/" />
        <dc:date>2014-03-10</dc:date>
        <dc:creator>
          <cc:Agent>
            <dc:title>https://wiki.openstreetmap.org/wiki/User:Moresby</dc:title>
          </cc:Agent>
        </dc:creator>
      </cc:Work>
      <cc:License
         rdf:about="http://creativecommons.org/licenses/by-sa/4.0/">
        <cc:permits
           rdf:resource="http://creativecommons.org/ns#Reproduction" />
        <cc:permits
           rdf:resource="http://creativecommons.org/ns#Distribution" />
        <cc:requires
           rdf:resource="http://creativecommons.org/ns#Notice" />
        <cc:requires
           rdf:resource="http://creativecommons.org/ns#Attribution" />
        <cc:permits
           rdf:resource="http://creativecommons.org/ns#DerivativeWorks" />
        <cc:requires
           rdf:resource="http://creativecommons.org/ns#ShareAlike" />
      </cc:License>
    </rdf:RDF>
  </metadata>
  <rect
     style="fill:#f0f0f0;stroke:#000000;stroke-width:12"
     id="rect843"
     y="7"
     x="7"
     ry="32"
     height="242"
     width="242" />
  <g
     id="g7657">
    <path
       inkscape:connector-curvature="0"
       id="path30"
       d="m 93.254926,83.052836 c -12.069198,-0.441429 -13.801227,19.056384 -1.723365,20.610774 8.639489,7.30996 25.931379,19.38079 16.480439,32.78895 -6.65799,7.42291 -13.310928,14.58911 -22.055787,18.88332 -9.794407,9.24637 6.247231,24.5744 15.039527,14.37229 5.00409,-9.64974 12.94776,-18.85809 22.9277,-23.89377 12.93583,-3.43179 21.58102,11.27464 28.50714,19.09618 2.0684,11.96672 21.42494,9.44737 20.51663,-2.56662 0.0946,-10.28099 -13.29608,-9.49301 -16.84964,-17.54964 -9.79672,-5.63478 -15.68416,-20.52581 -5.1448,-28.43713 5.66088,-6.57043 11.66093,-11.90419 19.09215,-15.69411 9.79127,-9.243894 -6.24607,-24.572627 -15.03952,-14.372287 -4.87323,9.520796 -12.70108,18.353727 -22.28912,23.697277 -13.10914,4.22299 -22.21381,-10.999419 -29.14573,-18.899692 -0.99576,-4.696796 -5.526487,-8.201785 -10.315624,-8.035542 z"
       style="fill:#000000;fill-opacity:1;stroke-width:2.09587264" />
    <path
       id="path4649"
       d="m 128.00205,29.221766 a 98.778292,98.778292 0 0 0 -98.780285,98.776184 98.778292,98.778292 0 0 0 98.780285,98.78028 98.778292,98.778292 0 0 0 98.77619,-98.78028 98.778292,98.778292 0 0 0 -98.77619,-98.776184 z m 0,27.700724 a 71.07604,71.07604 0 0 1 71.07546,71.07546 71.07604,71.07604 0 0 1 -71.07546,71.07547 71.07604,71.07604 0 0 1 -71.075468,-71.07547 71.07604,71.07604 0 0 1 71.075468,-71.07546 z"
       style="color:#000000;display:inline;overflow:visible;visibility:visible;opacity:1;fill:#000000;fill-opacity:1;fill-rule:nonzero;stroke:#c8c8c8;stroke-width:0;stroke-linecap:round;stroke-linejoin:miter;stroke-miterlimit:4;stroke-dasharray:none;stroke-dashoffset:1.75999999;stroke-opacity:1;marker:none;enable-background:accumulate"
       inkscape:connector-curvature="0" />
  </g>
</svg>
