<?xml version="1.0" encoding="UTF-8" standalone="no"?>
<!-- Created with Inkscape (http://www.inkscape.org/) -->

<svg
   xmlns:dc="http://purl.org/dc/elements/1.1/"
   xmlns:cc="http://creativecommons.org/ns#"
   xmlns:rdf="http://www.w3.org/1999/02/22-rdf-syntax-ns#"
   xmlns:svg="http://www.w3.org/2000/svg"
   xmlns="http://www.w3.org/2000/svg"
   xmlns:sodipodi="http://sodipodi.sourceforge.net/DTD/sodipodi-0.dtd"
   xmlns:inkscape="http://www.inkscape.org/namespaces/inkscape"
   version="1.0"
   width="1192"
   height="1192"
   id="svg2420"
   inkscape:version="0.48.4 r9939"
   sodipodi:docname="Vorschriftszeichen_3a.svg">
  <metadata
     id="metadata7361">
    <rdf:RDF>
      <cc:Work
         rdf:about="">
        <dc:format>image/svg+xml</dc:format>
        <dc:type
           rdf:resource="http://purl.org/dc/dcmitype/StillImage" />
        <dc:title></dc:title>
      </cc:Work>
    </rdf:RDF>
  </metadata>
  <sodipodi:namedview
     pagecolor="#ffffff"
     bordercolor="#666666"
     borderopacity="1"
     objecttolerance="10"
     gridtolerance="10"
     guidetolerance="10"
     inkscape:pageopacity="0"
     inkscape:pageshadow="2"
     inkscape:window-width="1398"
     inkscape:window-height="977"
     id="namedview7359"
     showgrid="false"
     inkscape:zoom="0.24583341"
     inkscape:cx="-491.93417"
     inkscape:cy="479.99985"
     inkscape:window-x="0"
     inkscape:window-y="0"
     inkscape:window-maximized="0"
     inkscape:current-layer="svg2420" />
  <defs
     id="defs2422">
    <clipPath
       id="id48">
      <path
         d="m 262.22,628.72 70.02,0 0,-70.92 -70.02,0 0,70.92 z"
         id="path24"
         inkscape:connector-curvature="0" />
    </clipPath>
  </defs>
  <path
     style="fill:#333333;fill-opacity:0.60000002;fill-rule:nonzero;stroke:none"
     d="M 596 116 C 473.15822 116 350.32038 162.86556 256.59375 256.59375 C 69.140496 444.03626 69.140496 747.96375 256.59375 935.40625 C 444.04701 1122.8626 747.95301 1122.8626 935.40625 935.40625 C 1122.8596 747.96375 1122.8596 444.03626 935.40625 256.59375 C 841.67963 162.86556 718.84178 116 596 116 z M 594.4375 240.09375 C 686.04128 239.68716 777.79071 274.45068 847.6875 344.34375 C 979.2441 475.90717 986.2494 684.81291 868.75 824.65625 L 769.5625 725.46875 L 769.5625 563.71875 C 769.5625 478.04857 700.12801 408.59375 614.46875 408.59375 L 452.6875 408.59375 L 367.34375 323.25 C 432.88661 268.17186 513.61064 240.45251 594.4375 240.09375 z M 323.25 367.34375 L 370.65625 414.75 L 320.09375 467.40625 L 376.59375 526.15625 L 482.0625 526.15625 L 652.03125 696.125 L 652.03125 858.65625 L 710.75 810.09375 L 769.5625 858.65625 L 769.5625 813.65625 L 824.65625 868.75 C 684.81765 986.26394 475.88294 979.21963 344.3125 847.65625 C 212.75591 716.09283 205.75067 507.1871 323.25 367.34375 z M 570.25 526.15625 L 614.46875 526.15625 C 635.20148 526.15625 652.03125 542.9704 652.03125 563.71875 L 652.03125 607.9375 L 570.25 526.15625 z "
     id="path82" />
</svg>
