<?xml version="1.0" encoding="UTF-8" standalone="no"?>
<svg
   xmlns:dc="http://purl.org/dc/elements/1.1/"
   xmlns:cc="http://creativecommons.org/ns#"
   xmlns:rdf="http://www.w3.org/1999/02/22-rdf-syntax-ns#"
   xmlns:svg="http://www.w3.org/2000/svg"
   xmlns="http://www.w3.org/2000/svg"
   xmlns:sodipodi="http://sodipodi.sourceforge.net/DTD/sodipodi-0.dtd"
   xmlns:inkscape="http://www.inkscape.org/namespaces/inkscape"
   viewBox="0 0 61.085281 56.627037"
   version="1.1"
   id="svg4538"
   sodipodi:docname="note_open.svg"
   inkscape:version="0.92.3 (2405546, 2018-03-11)"
   width="61.085281"
   height="56.627037"
   inkscape:export-filename="C:\Users\simon\git\osmeditor4android\src\main\res\drawable-xhdpi\note_open.png"
   inkscape:export-xdpi="74.593346"
   inkscape:export-ydpi="74.593346">
  <metadata
     id="metadata4544">
    <rdf:RDF>
      <cc:Work
         rdf:about="">
        <dc:format>image/svg+xml</dc:format>
        <dc:type
           rdf:resource="http://purl.org/dc/dcmitype/StillImage" />
        <dc:title>wlm-icon-note-black</dc:title>
      </cc:Work>
    </rdf:RDF>
  </metadata>
  <defs
     id="defs4542" />
  <sodipodi:namedview
     pagecolor="#ffffff"
     bordercolor="#666666"
     borderopacity="1"
     objecttolerance="10"
     gridtolerance="10"
     guidetolerance="10"
     inkscape:pageopacity="0"
     inkscape:pageshadow="2"
     inkscape:window-width="1229"
     inkscape:window-height="876"
     id="namedview4540"
     showgrid="false"
     inkscape:zoom="5.33"
     inkscape:cx="-51.440453"
     inkscape:cy="28.319402"
     inkscape:window-x="214"
     inkscape:window-y="131"
     inkscape:window-maximized="0"
     inkscape:current-layer="svg4538"
     fit-margin-top="0"
     fit-margin-left="0"
     fit-margin-right="0"
     fit-margin-bottom="0" />
  <title
     id="title4518">wlm-icon-note-black</title>
  <path
     style="fill:none;stroke:#f2f300;stroke-width:3;stroke-linecap:round;stroke-linejoin:round;stroke-opacity:0.8"
     inkscape:connector-curvature="0"
     d="m 20.67829,19.887635 6.39,-12.4500002 a 3,3 0 0 1 2.8,-1.62 l 6.41,0.32"
     id="path4520" />
  <path
     style="fill:none;stroke:#f2f300;stroke-width:3;stroke-linecap:round;stroke-linejoin:round;stroke-opacity:0.8"
     inkscape:connector-curvature="0"
     d="m 48.27829,6.6976348 8.48,0.47 a 3,3 0 0 1 2.63,4.0800002 l -16.74,42 a 3,3 0 0 1 -3.38,1.82 l -29.29,-6 a 3,3 0 0 1 -2.05,-4.29 l 8.68,-16.97"
     id="path4522" />
  <polyline
     style="fill:none;stroke:#f2f300;stroke-width:3;stroke-linecap:round;stroke-linejoin:round;stroke-opacity:0.8"
     points="64.08 21.9 48.38 60.35 22.02 55.57"
     id="polyline4524"
     transform="translate(-9.45171,-11.692365)" />
  <path
     style="fill:none;stroke:#f2f300;stroke-width:3;stroke-linecap:round;stroke-linejoin:round;stroke-opacity:0.8"
     inkscape:connector-curvature="0"
     d="m 44.47829,10.367635 -6.24,-0.4000002 a 2.1,2.1 0 0 1 -1.95,-2.09 v -4.29 a 2.08,2.08 0 0 1 2.26,-2.08 l 8.61,0.59 a 2.08,2.08 0 0 1 1.66,3.12 l -2.4,4.09 a 2.07,2.07 0 0 1 -1.94,1.0600002 z"
     id="path4526" />
  <line
     style="fill:none;stroke:#f2f300;stroke-width:3;stroke-linecap:round;stroke-linejoin:round;stroke-opacity:0.8"
     x1="29.45829"
     y1="17.107634"
     x2="45.02829"
     y2="18.497635"
     id="line4528" />
  <line
     style="fill:none;stroke:#f2f300;stroke-width:3;stroke-linecap:round;stroke-linejoin:round;stroke-opacity:0.8"
     x1="27.36829"
     y1="21.687635"
     x2="42.93829"
     y2="23.307634"
     id="line4530" />
  <line
     style="fill:none;stroke:#f2f300;stroke-width:3;stroke-linecap:round;stroke-linejoin:round;stroke-opacity:0.8"
     x1="27.248291"
     y1="26.647635"
     x2="40.838291"
     y2="28.117636"
     id="line4532" />
  <line
     style="fill:none;stroke:#f2f300;stroke-width:3;stroke-linecap:round;stroke-linejoin:round;stroke-opacity:0.8"
     x1="29.698292"
     y1="31.887636"
     x2="38.748291"
     y2="32.927635"
     id="line4534" />
  <path
     d="m 27.24829,26.647635 5.22,11.16 -11,-5.36 a 2.49,2.49 0 0 1 -0.59,-0.41 l -18.71,-18.67 c -1.17000005,-1.17 -0.77,-3.4500002 0.88,-5.1100002 v 0 c 1.66,-1.66 3.95,-2.05 5.11,-0.88 l 18.66,18.6500002 a 2.29,2.29 0 0 1 0.43,0.62 z"
     id="path4536"
     style="fill:none;stroke:#f2f300;stroke-width:3;stroke-linecap:round;stroke-linejoin:round;stroke-opacity:0.8"
     inkscape:connector-curvature="0" />
</svg>
