<?xml version="1.0" encoding="UTF-8" standalone="no"?>
<svg
   xmlns:dc="http://purl.org/dc/elements/1.1/"
   xmlns:cc="http://creativecommons.org/ns#"
   xmlns:rdf="http://www.w3.org/1999/02/22-rdf-syntax-ns#"
   xmlns:svg="http://www.w3.org/2000/svg"
   xmlns="http://www.w3.org/2000/svg"
   xmlns:sodipodi="http://sodipodi.sourceforge.net/DTD/sodipodi-0.dtd"
   xmlns:inkscape="http://www.inkscape.org/namespaces/inkscape"
   version="1.1"
   x="0px"
   y="0px"
   viewBox="0 0 100 125"
   enable-background="new 0 0 100 100"
   xml:space="preserve"
   id="svg2"
   inkscape:version="0.92.3 (2405546, 2018-03-11)"
   width="100%"
   height="100%"
   sodipodi:docname="roulette_closed.svg"
   inkscape:export-filename="C:\Users\simon\git\osmeditor4android\src\main\res\drawable-xhdpi\roulette_closed.png"
   inkscape:export-xdpi="49.275696"
   inkscape:export-ydpi="49.275696"><metadata
     id="metadata40"><rdf:RDF><cc:Work
         rdf:about=""><dc:format>image/svg+xml</dc:format><dc:type
           rdf:resource="http://purl.org/dc/dcmitype/StillImage" /><dc:title></dc:title></cc:Work></rdf:RDF></metadata><defs
     id="defs38" /><sodipodi:namedview
     pagecolor="#ffffff"
     bordercolor="#666666"
     borderopacity="1"
     objecttolerance="10"
     gridtolerance="10"
     guidetolerance="10"
     inkscape:pageopacity="0"
     inkscape:pageshadow="2"
     inkscape:window-width="1920"
     inkscape:window-height="1147"
     id="namedview36"
     showgrid="false"
     inkscape:zoom="6.62"
     inkscape:cx="22.08238"
     inkscape:cy="62.70375"
     inkscape:window-x="-8"
     inkscape:window-y="-8"
     inkscape:window-maximized="1"
     inkscape:current-layer="svg2" /><g
     id="g5838"><path
       inkscape:connector-curvature="0"
       id="path30"
       d="m 33.270778,28.026119 c -5.758555,-0.210618 -6.584955,9.092339 -0.822266,9.833984 4.122143,3.487785 12.372591,9.24712 7.863282,15.644531 -3.176717,3.541682 -6.351019,6.960874 -10.523438,9.009766 -4.673188,4.411703 2.98073,11.725138 7.175781,6.857422 2.387594,-4.604162 6.177744,-8.997723 10.939454,-11.400391 6.172051,-1.637402 10.296914,5.379449 13.601562,9.111328 0.986889,5.709657 10.22244,4.507608 9.789062,-1.224609 0.04515,-4.905347 -6.343937,-4.52938 -8.03944,-8.373425 -4.67429,-2.688513 -7.483355,-9.793444 -2.454728,-13.56816 2.700968,-3.134936 5.563759,-5.679822 9.109403,-7.488103 C 74.58114,32.017941 66.929272,24.70417 62.733669,29.57104 60.408518,34.11368 56.673629,38.32812 52.098903,40.877681 45.844164,42.892585 41.50007,35.629546 38.192653,31.860103 37.717546,29.619129 35.55581,27.9468 33.270778,28.026119 Z"
       style="fill:#00c800;fill-opacity:1" /><path
       id="path4649"
       d="M 49.849609,2.3417969 A 47.12991,47.12991 0 0 0 2.71875,49.470703 47.12991,47.12991 0 0 0 49.849609,96.601562 47.12991,47.12991 0 0 0 96.978516,49.470703 47.12991,47.12991 0 0 0 49.849609,2.3417969 Z m 0,13.2167971 A 33.912384,33.912384 0 0 1 83.761719,49.470703 33.912384,33.912384 0 0 1 49.849609,83.382812 33.912384,33.912384 0 0 1 15.9375,49.470703 33.912384,33.912384 0 0 1 49.849609,15.558594 Z"
       style="color:#000000;display:inline;overflow:visible;visibility:visible;opacity:1;fill:#00c800;fill-opacity:1;fill-rule:nonzero;stroke:#c8c8c8;stroke-width:0;stroke-linecap:round;stroke-linejoin:miter;stroke-miterlimit:4;stroke-dasharray:none;stroke-dashoffset:1.75999999;stroke-opacity:1;marker:none;enable-background:accumulate"
       inkscape:connector-curvature="0" /></g></svg>