<svg xmlns="http://www.w3.org/2000/svg" xmlns:xlink="http://www.w3.org/1999/xlink" version="1.1" x="0px" y="0px" viewBox="0 0 100 125" enable-background="new 0 0 100 100" xml:space="preserve"><g><path d="M68.361,20.7c4.419,2.774,8.163,6.519,10.938,10.937l8.049-4.645c-3.596-5.825-8.516-10.744-14.341-14.34L68.361,20.7z"/><path d="M51.255,6.165v9.284c5.383,0.193,10.451,1.611,14.934,3.992l4.648-8.051C64.983,8.226,58.327,6.365,51.255,6.165z"/><path d="M33.81,19.441c4.483-2.381,9.552-3.799,14.935-3.992V6.165c-7.072,0.2-13.729,2.06-19.581,5.225L33.81,19.441z"/><path d="M88.609,70.836c3.166-5.853,5.024-12.508,5.226-19.58H84.55c-0.193,5.383-1.611,10.45-3.992,14.934L88.609,70.836z"/><path d="M80.558,33.809c2.381,4.483,3.799,9.552,3.992,14.936h9.285c-0.201-7.073-2.062-13.729-5.227-19.582L80.558,33.809z"/><path d="M48.744,93.835V84.55c-5.383-0.191-10.451-1.611-14.935-3.992l-4.647,8.052C35.016,91.775,41.672,93.636,48.744,93.835z"/><path d="M19.441,66.189c-2.381-4.483-3.8-9.551-3.992-14.934H6.165c0.2,7.072,2.06,13.728,5.226,19.58L19.441,66.189z"/><path d="M31.638,79.3c-4.419-2.775-8.163-6.52-10.938-10.938l-8.05,4.646c3.598,5.826,8.516,10.746,14.341,14.342L31.638,79.3z"/><path d="M79.299,68.361C76.524,72.78,72.78,76.524,68.361,79.3l4.646,8.049c5.825-3.597,10.744-8.516,14.34-14.342L79.299,68.361z"/><path d="M20.699,31.637c2.775-4.418,6.52-8.163,10.938-10.937l-4.646-8.049c-5.825,3.597-10.744,8.516-14.34,14.341L20.699,31.637z   "/><path d="M66.188,80.558c-4.483,2.381-9.551,3.799-14.934,3.992v9.285c7.072-0.199,13.729-2.06,19.582-5.226L66.188,80.558z"/><path d="M11.391,29.163c-3.165,5.853-5.025,12.509-5.226,19.582h9.284c0.192-5.383,1.611-10.452,3.992-14.936L11.391,29.163z"/></g><path d="M61.931,34.591c-0.557,0.558-0.78,1.314-0.69,2.041l-6.07,6.07c-2.857,2.858-7.482,2.858-10.34,0l-6.07-6.07  c0.09-0.727-0.135-1.484-0.691-2.041c-0.96-0.961-2.518-0.961-3.477,0c-0.961,0.959-0.961,2.516,0,3.477  c0.557,0.557,1.313,0.781,2.039,0.691l6.07,6.07c2.859,2.857,2.857,7.483,0,10.341l-6.07,6.068  c-0.726-0.089-1.481,0.135-2.039,0.691c-0.961,0.961-0.961,2.518,0,3.477c0.961,0.96,2.517,0.96,3.477,0  c0.557-0.557,0.781-1.314,0.691-2.04l6.07-6.069c2.857-2.857,7.482-2.857,10.34,0l6.07,6.069c-0.09,0.726,0.134,1.483,0.69,2.04  c0.961,0.961,2.518,0.961,3.478,0.001s0.96-2.516,0-3.478c-0.559-0.557-1.314-0.78-2.04-0.69l-6.07-6.069  c-2.858-2.858-2.857-7.484,0-10.341l6.07-6.07c0.726,0.09,1.481-0.133,2.04-0.691c0.96-0.959,0.96-2.516-0.002-3.477  C64.447,33.632,62.892,33.632,61.931,34.591z"/><text x="0" y="115" fill="#000000" font-size="5px" font-weight="bold" font-family="'Helvetica Neue', Helvetica, Arial-Unicode, Arial, Sans-serif">Created by Bakunetsu Kaito</text><text x="0" y="120" fill="#000000" font-size="5px" font-weight="bold" font-family="'Helvetica Neue', Helvetica, Arial-Unicode, Arial, Sans-serif">from the Noun Project</text></svg>