<?xml version="1.0" encoding="UTF-8" standalone="no"?>
<svg
   xmlns:dc="http://purl.org/dc/elements/1.1/"
   xmlns:cc="http://creativecommons.org/ns#"
   xmlns:rdf="http://www.w3.org/1999/02/22-rdf-syntax-ns#"
   xmlns:svg="http://www.w3.org/2000/svg"
   xmlns="http://www.w3.org/2000/svg"
   xmlns:sodipodi="http://sodipodi.sourceforge.net/DTD/sodipodi-0.dtd"
   xmlns:inkscape="http://www.inkscape.org/namespaces/inkscape"
   version="1.1"
   x="0px"
   y="0px"
   viewBox="0 0 100 125"
   enable-background="new 0 0 100 100"
   xml:space="preserve"
   id="svg2"
   inkscape:version="0.48.4 r9939"
   width="100%"
   height="100%"
   sodipodi:docname="roulette_open.svg"
   inkscape:export-filename="C:\Users\simon\git\osmeditor4android\src\main\res\drawable-xhdpi\roulette_open.png"
   inkscape:export-xdpi="49.275696"
   inkscape:export-ydpi="49.275696"><metadata
     id="metadata40"><rdf:RDF><cc:Work
         rdf:about=""><dc:format>image/svg+xml</dc:format><dc:type
           rdf:resource="http://purl.org/dc/dcmitype/StillImage" /><dc:title></dc:title></cc:Work></rdf:RDF></metadata><defs
     id="defs38" /><sodipodi:namedview
     pagecolor="#ffffff"
     bordercolor="#666666"
     borderopacity="1"
     objecttolerance="10"
     gridtolerance="10"
     guidetolerance="10"
     inkscape:pageopacity="0"
     inkscape:pageshadow="2"
     inkscape:window-width="1920"
     inkscape:window-height="1147"
     id="namedview36"
     showgrid="false"
     inkscape:zoom="4.37"
     inkscape:cx="22.08238"
     inkscape:cy="62.5"
     inkscape:window-x="-8"
     inkscape:window-y="-8"
     inkscape:window-maximized="1"
     inkscape:current-layer="svg2" /><g
     id="g4"
     style="fill:#f2f300;fill-opacity:0.8;stroke:none"><path
       inkscape:connector-curvature="0"
       d="m 68.361,20.7 c 4.419,2.774 8.163,6.519 10.938,10.937 l 8.049,-4.645 C 83.752,21.167 78.832,16.248 73.007,12.652 L 68.361,20.7 z"
       id="path6"
       style="fill:#f2f300;fill-opacity:0.8;stroke:none" /><path
       inkscape:connector-curvature="0"
       d="m 51.255,6.165 v 9.284 c 5.383,0.193 10.451,1.611 14.934,3.992 L 70.837,11.39 C 64.983,8.226 58.327,6.365 51.255,6.165 z"
       id="path8"
       style="fill:#f2f300;fill-opacity:0.8;stroke:none" /><path
       inkscape:connector-curvature="0"
       d="m 33.81,19.441 c 4.483,-2.381 9.552,-3.799 14.935,-3.992 V 6.165 c -7.072,0.2 -13.729,2.06 -19.581,5.225 l 4.646,8.051 z"
       id="path10"
       style="fill:#f2f300;fill-opacity:0.8;stroke:none" /><path
       inkscape:connector-curvature="0"
       d="m 88.609,70.836 c 3.166,-5.853 5.024,-12.508 5.226,-19.58 H 84.55 c -0.193,5.383 -1.611,10.45 -3.992,14.934 l 8.051,4.646 z"
       id="path12"
       style="fill:#f2f300;fill-opacity:0.8;stroke:none" /><path
       inkscape:connector-curvature="0"
       d="m 80.558,33.809 c 2.381,4.483 3.799,9.552 3.992,14.936 h 9.285 C 93.634,41.672 91.773,35.016 88.608,29.163 l -8.05,4.646 z"
       id="path14"
       style="fill:#f2f300;fill-opacity:0.8;stroke:none" /><path
       inkscape:connector-curvature="0"
       d="M 48.744,93.835 V 84.55 C 43.361,84.359 38.293,82.939 33.809,80.558 l -4.647,8.052 c 5.854,3.165 12.51,5.026 19.582,5.225 z"
       id="path16"
       style="fill:#f2f300;fill-opacity:0.8;stroke:none" /><path
       inkscape:connector-curvature="0"
       d="M 19.441,66.189 C 17.06,61.706 15.641,56.638 15.449,51.255 H 6.165 c 0.2,7.072 2.06,13.728 5.226,19.58 l 8.05,-4.646 z"
       id="path18"
       style="fill:#f2f300;fill-opacity:0.8;stroke:none" /><path
       inkscape:connector-curvature="0"
       d="M 31.638,79.3 C 27.219,76.525 23.475,72.78 20.7,68.362 l -8.05,4.646 c 3.598,5.826 8.516,10.746 14.341,14.342 l 4.647,-8.05 z"
       id="path20"
       style="fill:#f2f300;fill-opacity:0.8;stroke:none" /><path
       inkscape:connector-curvature="0"
       d="M 79.299,68.361 C 76.524,72.78 72.78,76.524 68.361,79.3 l 4.646,8.049 c 5.825,-3.597 10.744,-8.516 14.34,-14.342 l -8.048,-4.646 z"
       id="path22"
       style="fill:#f2f300;fill-opacity:0.8;stroke:none" /><path
       inkscape:connector-curvature="0"
       d="m 20.699,31.637 c 2.775,-4.418 6.52,-8.163 10.938,-10.937 l -4.646,-8.049 c -5.825,3.597 -10.744,8.516 -14.34,14.341 l 8.048,4.645 z"
       id="path24"
       style="fill:#f2f300;fill-opacity:0.8;stroke:none" /><path
       inkscape:connector-curvature="0"
       d="m 66.188,80.558 c -4.483,2.381 -9.551,3.799 -14.934,3.992 v 9.285 c 7.072,-0.199 13.729,-2.06 19.582,-5.226 l -4.648,-8.051 z"
       id="path26"
       style="fill:#f2f300;fill-opacity:0.8;stroke:none" /><path
       inkscape:connector-curvature="0"
       d="M 11.391,29.163 C 8.226,35.016 6.366,41.672 6.165,48.745 h 9.284 c 0.192,-5.383 1.611,-10.452 3.992,-14.936 l -8.05,-4.646 z"
       id="path28"
       style="fill:#f2f300;fill-opacity:0.8;stroke:none" /></g><path
     inkscape:connector-curvature="0"
     d="m 64.384811,31.42264 c -0.671592,0.672797 -0.94047,1.584329 -0.831954,2.460895 l -7.318781,7.318781 c -3.444771,3.445976 -9.021272,3.445976 -12.467248,0 l -7.318781,-7.318781 c 0.108515,-0.876566 -0.162774,-1.789303 -0.83316,-2.460895 -1.157501,-1.158707 -3.036028,-1.158707 -4.192323,0 -1.158707,1.156295 -1.158707,3.033617 0,4.192323 0.671592,0.671592 1.583123,0.941675 2.458483,0.83316 l 7.318782,7.318781 c 3.447182,3.44477 3.44477,9.022477 0,12.468454 l -7.318782,7.316369 c -0.87536,-0.10731 -1.785686,0.162774 -2.458483,0.83316 -1.158707,1.158706 -1.158707,3.036028 0,4.192323 1.158706,1.157501 3.034822,1.157501 4.192323,0 0.671592,-0.671592 0.941675,-1.584329 0.83316,-2.459689 l 7.318781,-7.317576 c 3.44477,-3.44477 9.021272,-3.44477 12.467248,0 l 7.318781,7.317576 c -0.108516,0.87536 0.161568,1.788097 0.831954,2.459689 1.158706,1.158707 3.036028,1.158707 4.193529,0.0012 1.157501,-1.157501 1.157501,-3.033617 0,-4.193529 -0.674003,-0.671592 -1.58433,-0.94047 -2.459689,-0.831954 l -7.318782,-7.317575 c -3.445976,-3.445977 -3.44477,-9.023684 0,-12.468454 l 7.318782,-7.318781 c 0.875359,0.108515 1.785686,-0.160363 2.459689,-0.83316 1.157501,-1.156295 1.157501,-3.033617 -0.0024,-4.192323 -1.157501,-1.156295 -3.032411,-1.156295 -4.191117,0 z"
     id="path30"
     style="fill:#f2f300;fill-opacity:0.8" /><path
     style="color:#000000;fill:#c8beb7;fill-opacity:0;fill-rule:nonzero;stroke:#c8c8c8;stroke-width:0;stroke-linecap:round;stroke-linejoin:miter;stroke-miterlimit:4;stroke-opacity:1;stroke-dasharray:none;stroke-dashoffset:1.76000004;marker:none;visibility:visible;display:inline;overflow:visible;enable-background:accumulate"
     d="m 6.368409,46.445088 c 0.2861177,-4.67623 1.8128958,-10.47397 3.960646,-15.040036 l 1.045717,-2.22317 3.809182,2.184256 c 2.095049,1.201341 3.893543,2.258823 3.996651,2.349962 0.103109,0.09114 -0.138825,0.87425 -0.53763,1.740249 -1.582541,3.436467 -2.777691,7.871487 -3.09136,11.471569 l -0.164487,1.887871 -4.581886,0 -4.5818858,0 0.1450528,-2.370701 z"
     id="path47"
     inkscape:connector-curvature="0" /></svg>