<?xml version="1.0" encoding="UTF-8" standalone="no"?>
<svg
   xmlns:dc="http://purl.org/dc/elements/1.1/"
   xmlns:cc="http://creativecommons.org/ns#"
   xmlns:rdf="http://www.w3.org/1999/02/22-rdf-syntax-ns#"
   xmlns:svg="http://www.w3.org/2000/svg"
   xmlns="http://www.w3.org/2000/svg"
   xmlns:sodipodi="http://sodipodi.sourceforge.net/DTD/sodipodi-0.dtd"
   xmlns:inkscape="http://www.inkscape.org/namespaces/inkscape"
   version="1.0"
   height="256"
   width="256"
   viewBox="0 0 256 256"
   id="svg857"
   sodipodi:docname="todo_small.svg"
   inkscape:export-filename="C:\Users\simon\git\osmeditor4android\src\main\res\drawable-xhdpi\photo_small.png"
   inkscape:export-xdpi="13.606299"
   inkscape:export-ydpi="13.606299"
   inkscape:version="0.92.3 (2405546, 2018-03-11)">
  <defs
     id="defs861" />
  <sodipodi:namedview
     pagecolor="#ffffff"
     bordercolor="#666666"
     borderopacity="1"
     objecttolerance="10"
     gridtolerance="10"
     guidetolerance="10"
     inkscape:pageopacity="0"
     inkscape:pageshadow="2"
     inkscape:window-width="1066"
     inkscape:window-height="628"
     id="namedview859"
     showgrid="false"
     inkscape:zoom="0.91"
     inkscape:cx="82.561911"
     inkscape:cy="200.89492"
     inkscape:window-x="234"
     inkscape:window-y="234"
     inkscape:window-maximized="0"
     inkscape:current-layer="svg857" />
  <title
     id="title839">OpenStreetMap way element icon</title>
  <metadata
     id="metadata841">
    <rdf:RDF>
      <cc:Work
         rdf:about="">
        <dc:format>image/svg+xml</dc:format>
        <dc:type
           rdf:resource="http://purl.org/dc/dcmitype/StillImage" />
        <dc:title>OpenStreetMap way element icon</dc:title>
        <cc:license
           rdf:resource="http://creativecommons.org/licenses/by-sa/4.0/" />
        <dc:date>2014-03-10</dc:date>
        <dc:creator>
          <cc:Agent>
            <dc:title>https://wiki.openstreetmap.org/wiki/User:Moresby</dc:title>
          </cc:Agent>
        </dc:creator>
      </cc:Work>
      <cc:License
         rdf:about="http://creativecommons.org/licenses/by-sa/4.0/">
        <cc:permits
           rdf:resource="http://creativecommons.org/ns#Reproduction" />
        <cc:permits
           rdf:resource="http://creativecommons.org/ns#Distribution" />
        <cc:requires
           rdf:resource="http://creativecommons.org/ns#Notice" />
        <cc:requires
           rdf:resource="http://creativecommons.org/ns#Attribution" />
        <cc:permits
           rdf:resource="http://creativecommons.org/ns#DerivativeWorks" />
        <cc:requires
           rdf:resource="http://creativecommons.org/ns#ShareAlike" />
      </cc:License>
    </rdf:RDF>
  </metadata>
  <rect
     style="fill:#f0f0f0;stroke:#000000;stroke-width:12"
     id="rect843"
     y="7"
     x="7"
     ry="32"
     height="242"
     width="242" />
  <path
     d="m 58.13668,69.167542 h 73.54055 c 8.12292,0 14.70804,-6.585116 14.70804,-14.708045 0,-8.123029 -6.58512,-14.708138 -14.70804,-14.708138 H 58.13668 c -16.246142,0 -29.416214,13.170077 -29.416214,29.416183 V 186.83243 c 0,16.24659 13.170072,29.41622 29.416214,29.41622 H 175.8015 c 16.2466,0 29.41622,-13.16963 29.41622,-29.41622 v -29.41622 c 0,-8.12318 -6.58475,-14.70806 -14.70804,-14.70806 -8.12332,0 -14.70818,6.58488 -14.70818,14.70806 v 29.41622 H 58.13668 Z M 222.97186,44.059201 c -5.74344,-5.743796 -15.05667,-5.743796 -20.80012,0 l -77.84859,77.848599 -11.6619,-11.6621 c -5.74396,-5.7438 -15.056536,-5.7438 -20.800512,0 -5.743795,5.74395 -5.743795,15.05658 0,20.80052 l 22.062172,22.06213 c 2.75836,2.75826 6.49937,4.30786 10.40024,4.30786 3.90091,0 7.64192,-1.5496 10.4003,-4.30786 l 88.24841,-88.248674 c 5.74357,-5.743944 5.74357,-15.056548 0,-20.800475 z"
     id="path5113"
     style="fill:#000000;fill-opacity:1;fill-rule:evenodd;stroke-width:14.70810604"
     inkscape:connector-curvature="0" />
</svg>
