<?xml version="1.0" encoding="UTF-8" standalone="no"?>
<!-- Created with Inkscape (http://www.inkscape.org/) -->

<svg
   xmlns:dc="http://purl.org/dc/elements/1.1/"
   xmlns:cc="http://creativecommons.org/ns#"
   xmlns:rdf="http://www.w3.org/1999/02/22-rdf-syntax-ns#"
   xmlns:svg="http://www.w3.org/2000/svg"
   xmlns="http://www.w3.org/2000/svg"
   xmlns:sodipodi="http://sodipodi.sourceforge.net/DTD/sodipodi-0.dtd"
   xmlns:inkscape="http://www.inkscape.org/namespaces/inkscape"
   width="64"
   height="44"
   id="svg5536"
   version="1.1"
   inkscape:version="0.48.4 r9939"
   sodipodi:docname="undolist_undo_light.svg">
  <defs
     id="defs5538">
    <clipPath
       clipPathUnits="userSpaceOnUse"
       id="clipPath1244">
      <path
         inkscape:connector-curvature="0"
         d="M 0,96 96,96 96,0 0,0 0,96 z"
         id="path1246" />
    </clipPath>
  </defs>
  <sodipodi:namedview
     id="base"
     pagecolor="#ffffff"
     bordercolor="#666666"
     borderopacity="1.0"
     inkscape:pageopacity="0.0"
     inkscape:pageshadow="2"
     inkscape:zoom="5.5"
     inkscape:cx="-2.8181818"
     inkscape:cy="32"
     inkscape:current-layer="layer1"
     showgrid="true"
     inkscape:document-units="px"
     inkscape:grid-bbox="true"
     inkscape:window-width="1920"
     inkscape:window-height="1148"
     inkscape:window-x="-8"
     inkscape:window-y="-8"
     inkscape:window-maximized="1" />
  <metadata
     id="metadata5541">
    <rdf:RDF>
      <cc:Work
         rdf:about="">
        <dc:format>image/svg+xml</dc:format>
        <dc:type
           rdf:resource="http://purl.org/dc/dcmitype/StillImage" />
        <dc:title></dc:title>
      </cc:Work>
    </rdf:RDF>
  </metadata>
  <g
     id="layer1"
     inkscape:label="Layer 1"
     inkscape:groupmode="layer"
     transform="translate(0,-20)">
    <g
       id="g1240"
       transform="matrix(0.77593567,0,0,-0.77593567,-5.2449898,79.426964)"
       style="fill:#333333;fill-opacity:0.60000002">
      <g
         id="g1242"
         clip-path="url(#clipPath1244)"
         style="fill:#333333;fill-opacity:0.60000002">
        <g
           id="g1248"
           transform="translate(34.8691,57.7568)"
           style="fill:#333333;fill-opacity:0.60000002">
          <path
             d="M 0,0 0,-8.48 -18.357,4.979 0,18.433 0,10.04 l 0,-0.035 10.557,0 c 20.748,0 34.062,-6.076 34.062,-23.979 0,-17.898 -13.314,-23.972 -34.062,-23.972 l -23.761,0 0,9.967 23.761,0 c 17.675,0 24.093,3.796 24.093,14.005 0,10.211 -6.418,14.009 -24.093,14.009 L 0,0.035 0,0 z"
             style="fill:#333333;fill-opacity:0.60000002;fill-rule:nonzero;stroke:none"
             id="path1250"
             inkscape:connector-curvature="0" />
        </g>
      </g>
    </g>
  </g>
</svg>
