<?xml version="1.0" encoding="UTF-8" standalone="no"?>
<!-- Generator: Adobe Illustrator 16.0.0, SVG Export Plug-In . SVG Version: 6.00 Build 0)  -->

<svg
   xmlns:dc="http://purl.org/dc/elements/1.1/"
   xmlns:cc="http://creativecommons.org/ns#"
   xmlns:rdf="http://www.w3.org/1999/02/22-rdf-syntax-ns#"
   xmlns:svg="http://www.w3.org/2000/svg"
   xmlns="http://www.w3.org/2000/svg"
   xmlns:sodipodi="http://sodipodi.sourceforge.net/DTD/sodipodi-0.dtd"
   xmlns:inkscape="http://www.inkscape.org/namespaces/inkscape"
   version="1.1"
   id="Layer_1"
   x="0px"
   y="0px"
   width="618"
   height="618"
   viewBox="0 0 618 618"
   enable-background="new 0 0 512 512"
   xml:space="preserve"
   inkscape:version="0.48.4 r9939"
   sodipodi:docname="unlocked_light.svg"
   inkscape:export-filename="C:\Users\simon\git\osmeditor4android\res\drawable-xhdpi\unlocked_light.png"
   inkscape:export-xdpi="9.3203888"
   inkscape:export-ydpi="9.3203888"><metadata
   id="metadata6275"><rdf:RDF><cc:Work
       rdf:about=""><dc:format>image/svg+xml</dc:format><dc:type
         rdf:resource="http://purl.org/dc/dcmitype/StillImage" /><dc:title></dc:title></cc:Work></rdf:RDF></metadata><defs
   id="defs6273" /><sodipodi:namedview
   pagecolor="#ffffff"
   bordercolor="#666666"
   borderopacity="1"
   objecttolerance="10"
   gridtolerance="10"
   guidetolerance="10"
   inkscape:pageopacity="0"
   inkscape:pageshadow="2"
   inkscape:window-width="1318"
   inkscape:window-height="1041"
   id="namedview6271"
   showgrid="false"
   inkscape:zoom="0.95"
   inkscape:cx="292.02196"
   inkscape:cy="256"
   inkscape:window-x="0"
   inkscape:window-y="0"
   inkscape:window-maximized="0"
   inkscape:current-layer="Layer_1" />

<path
   d="M 501,277.02116 H 437 309 v -96 c 0,-70.562 -57.406,-127.999997 -128,-127.999997 -70.578,0 -128,57.437997 -128,127.999997 v 96 h 64 v -96 c 0,-35.313 28.703,-64 64,-64 35.281,0 64,28.688 64,64 v 96 c -35.344,0 -64,28.656 -64,64 v 160 c 0,35.344 28.656,64 64,64 h 256 c 35.344,0 64,-28.656 64,-64 v -160 c 0,-35.344 -28.656,-64 -64,-64 z m -112,155.094 v 52.906 c 0,8.844 -7.156,16 -16,16 -8.844,0 -16,-7.156 -16,-16 v -52.906 c -9.375,-5.563 -16,-15.375 -16,-27.094 0,-17.688 14.313,-32 32,-32 17.687,0 32,14.313 32,32 0,11.719 -6.625,21.531 -16,27.094 z"
   id="path6269"
   style="fill:#ffffff;fill-opacity:1"
   inkscape:export-filename="C:\Users\simon\Documents\OSM\unlocked_tag.png"
   inkscape:export-xdpi="10.19447"
   inkscape:export-ydpi="10.19447"
   inkscape:connector-curvature="0" /></svg>