<?xml version="1.0" encoding="UTF-8" standalone="no"?>
<!-- Generator: Adobe Illustrator 16.0.0, SVG Export Plug-In . SVG Version: 6.00 Build 0)  -->

<svg
   xmlns:dc="http://purl.org/dc/elements/1.1/"
   xmlns:cc="http://creativecommons.org/ns#"
   xmlns:rdf="http://www.w3.org/1999/02/22-rdf-syntax-ns#"
   xmlns:svg="http://www.w3.org/2000/svg"
   xmlns="http://www.w3.org/2000/svg"
   xmlns:sodipodi="http://sodipodi.sourceforge.net/DTD/sodipodi-0.dtd"
   xmlns:inkscape="http://www.inkscape.org/namespaces/inkscape"
   version="1.1"
   id="Layer_1"
   x="0px"
   y="0px"
   width="618"
   height="618"
   viewBox="0 0 618 618"
   enable-background="new 0 0 512 512"
   xml:space="preserve"
   inkscape:version="0.48.4 r9939"
   sodipodi:docname="unlocked_correct_white.svg"
   inkscape:export-filename="C:\Users\simon\git\osmeditor4android\src\main\res\drawable-xhdpi\unlocked_correct_white.png"
   inkscape:export-xdpi="6.328125"
   inkscape:export-ydpi="6.328125"><metadata
   id="metadata6275"><rdf:RDF><cc:Work
       rdf:about=""><dc:format>image/svg+xml</dc:format><dc:type
         rdf:resource="http://purl.org/dc/dcmitype/StillImage" /><dc:title></dc:title></cc:Work></rdf:RDF></metadata><defs
   id="defs6273" /><sodipodi:namedview
   pagecolor="#ffffff"
   bordercolor="#666666"
   borderopacity="1"
   objecttolerance="10"
   gridtolerance="10"
   guidetolerance="10"
   inkscape:pageopacity="0"
   inkscape:pageshadow="2"
   inkscape:window-width="1920"
   inkscape:window-height="1147"
   id="namedview6271"
   showgrid="false"
   inkscape:zoom="0.95"
   inkscape:cx="233.43143"
   inkscape:cy="256"
   inkscape:window-x="-8"
   inkscape:window-y="-8"
   inkscape:window-maximized="1"
   inkscape:current-layer="Layer_1" />

<g
   id="g3760"><path
     inkscape:connector-curvature="0"
     inkscape:export-ydpi="10.19447"
     inkscape:export-xdpi="10.19447"
     inkscape:export-filename="C:\Users\simon\Documents\OSM\unlocked_tag.png"
     style="fill:#ffffff;fill-opacity:1"
     id="path6269"
     d="M 501,277.02116 H 437 309 v -96 c 0,-70.562 -57.406,-127.999997 -128,-127.999997 -70.578,0 -128,57.437997 -128,127.999997 v 96 h 64 v -96 c 0,-35.313 28.703,-64 64,-64 35.281,0 64,28.688 64,64 v 96 c -35.344,0 -64,28.656 -64,64 v 160 c 0,35.344 28.656,64 64,64 h 256 c 35.344,0 64,-28.656 64,-64 v -160 c 0,-35.344 -28.656,-64 -64,-64 z m -112,155.094 v 52.906 c 0,8.844 -7.156,16 -16,16 -8.844,0 -16,-7.156 -16,-16 v -52.906 c -9.375,-5.563 -16,-15.375 -16,-27.094 0,-17.688 14.313,-32 32,-32 17.687,0 32,14.313 32,32 0,11.719 -6.625,21.531 -16,27.094 z" /><flowRoot
     inkscape:export-ydpi="10.19447"
     inkscape:export-xdpi="10.19447"
     inkscape:export-filename="C:\Users\simon\Documents\OSM\unlocked_tag.png"
     transform="matrix(2.1974922,0,0,2.1974922,-304.78257,-132.85834)"
     style="font-size:156px;font-style:normal;font-variant:normal;font-weight:bold;font-stretch:normal;line-height:125%;letter-spacing:0px;word-spacing:0px;fill:#ffffff;fill-opacity:1;stroke:none;font-family:Courier New;-inkscape-font-specification:Courier New Bold"
     id="flowRoot6277"
     xml:space="preserve"><flowRegion
       id="flowRegion6279"><rect
         ry="0"
         style="font-size:156px;font-style:normal;font-variant:normal;font-weight:bold;font-stretch:normal;fill:#ffffff;fill-opacity:1;font-family:Courier New;-inkscape-font-specification:Courier New Bold"
         y="30.372881"
         x="290.71185"
         height="175.72882"
         width="182.23729"
         id="rect6281" /></flowRegion><flowPara
       id="flowPara6283">C</flowPara></flowRoot></g></svg>