<?xml version="1.0" encoding="UTF-8" standalone="no"?>
<!-- Created with Inkscape (http://www.inkscape.org/) -->

<svg
   xmlns:osb="http://www.openswatchbook.org/uri/2009/osb"
   xmlns:dc="http://purl.org/dc/elements/1.1/"
   xmlns:cc="http://creativecommons.org/ns#"
   xmlns:rdf="http://www.w3.org/1999/02/22-rdf-syntax-ns#"
   xmlns:svg="http://www.w3.org/2000/svg"
   xmlns="http://www.w3.org/2000/svg"
   xmlns:sodipodi="http://sodipodi.sourceforge.net/DTD/sodipodi-0.dtd"
   xmlns:inkscape="http://www.inkscape.org/namespaces/inkscape"
   width="287"
   height="288"
   id="svg2"
   version="1.1"
   inkscape:version="0.92.3 (2405546, 2018-03-11)"
   sodipodi:docname="vespucci-logo-splash.svg"
   inkscape:export-filename="C:\Users\simon\git\osmeditor4android\src\main\res\drawable\vespucci_splash.png"
   inkscape:export-xdpi="96"
   inkscape:export-ydpi="96">
  <defs
     id="defs4">
    <linearGradient
       id="linearGradient4284"
       osb:paint="solid">
      <stop
         style="stop-color:#9fd385;stop-opacity:1;"
         offset="0"
         id="stop4286" />
    </linearGradient>
  </defs>
  <sodipodi:namedview
     id="base"
     pagecolor="#ffffff"
     bordercolor="#666666"
     borderopacity="1.0"
     inkscape:pageopacity="0.0"
     inkscape:pageshadow="2"
     inkscape:zoom="1.7577085"
     inkscape:cx="88.97132"
     inkscape:cy="128.71141"
     inkscape:document-units="px"
     inkscape:current-layer="layer1"
     showgrid="false"
     inkscape:snap-global="false"
     inkscape:window-width="1920"
     inkscape:window-height="1147"
     inkscape:window-x="-8"
     inkscape:window-y="-8"
     inkscape:window-maximized="1"
     fit-margin-left="32"
     fit-margin-top="32"
     fit-margin-bottom="32"
     fit-margin-right="32">
    <inkscape:grid
       type="xygrid"
       id="grid2985"
       empspacing="5"
       visible="true"
       enabled="true"
       snapvisiblegridlinesonly="true"
       originx="-36.65365"
       originy="-41.407232" />
  </sodipodi:namedview>
  <metadata
     id="metadata7">
    <rdf:RDF>
      <cc:Work
         rdf:about="">
        <dc:format>image/svg+xml</dc:format>
        <dc:type
           rdf:resource="http://purl.org/dc/dcmitype/StillImage" />
        <dc:title></dc:title>
      </cc:Work>
    </rdf:RDF>
  </metadata>
  <g
     inkscape:label="Ebene 1"
     inkscape:groupmode="layer"
     id="layer1"
     transform="translate(-36.65365,-722.95494)">
    <path
       style="opacity:1;fill:#82aa6b;fill-opacity:1;stroke:#82aa6b;stroke-width:2.99071908;stroke-miterlimit:4;stroke-dasharray:none;stroke-opacity:1"
       d="m 236.44964,800.77841 c 0,0 -13.96346,5.38476 -18.28207,6.28255 -4.3186,0.89772 -12.08869,3.14515 -12.08869,3.14515 0,0 -5.61628,-2.5459 -12.66999,-5.0896 -7.0537,-2.54361 -17.12686,-3.29227 -17.12686,-3.29227 0,0 -1.87351,2.09416 -12.67,4.78742 -9.00501,2.24635 -12.55867,3.10466 -13.97041,3.3388 l 4.84056,90.20185 c 39.08002,-19.92962 65.78444,-34.34293 82.06129,-43.00266 0.57708,-2.58621 1.39844,-2.53467 3.07366,-7.14908 2.87908,-7.93019 5.90273,-16.00453 5.90273,-16.00453 0,0 -2.73177,-9.13124 -4.31523,-17.80954 -1.58351,-8.67832 -4.75499,-15.40809 -4.75499,-15.40809 z m -118.34527,1.21624 c -1.5714,-0.003 -2.55838,0.0758 -2.72033,0.13149 0,0 4.32007,7.78085 6.76728,16.6088 2.4472,8.82795 3.59977,15.26088 3.59977,15.26088 0,0 -3.16404,7.6295 -4.74753,14.81159 -1.58349,7.182 -3.31655,13.76573 -3.31655,13.76573 0,0 3.3135,9.57763 5.32885,17.95674 2.01534,8.37903 2.16135,14.50947 2.16135,14.50947 0,0 -2.30736,6.13812 -4.32271,14.51721 -2.01535,8.37902 -2.87683,18.39824 -2.87683,18.39824 0,0 5.31603,-1.19192 16.37412,0.74365 l 10.15809,-119.67597 c -2.52308,-1.22759 -8.55885,-4.58786 -14.87581,-5.85057 -4.67848,-0.93516 -8.91071,-1.17014 -11.5297,-1.17744 z m 117.4347,61.70012 -93.04868,66.49128 c 6.45558,1.22976 10.46393,2.1148 10.46393,2.1148 0,0 7.34732,-1.64682 13.82521,-3.74163 6.47789,-2.09472 9.35345,-3.89654 9.35345,-3.89654 0,0 3.17184,0.30011 12.96066,3.74163 9.78882,3.44139 16.8362,5.08957 16.8362,5.08957 0,0 7.48741,-1.644 14.97298,-3.43954 7.48557,-1.79551 15.2636,-4.78739 15.2636,-4.78739 0,0 -0.43447,-2.99355 2.44454,-14.66438 2.87908,-11.67086 5.03822,-16.75603 5.03822,-16.75603 0,0 -0.2899,-2.69419 -2.16136,-11.82138 -1.8714,-9.12716 -5.75365,-17.8095 -5.75365,-17.8095 0,0 -0.34042,0.22121 -0.19522,-0.52089 z"
       id="path3834-2"
       inkscape:connector-curvature="0"
       sodipodi:nodetypes="cscscscccscscccscscscscccsccccscscscscscccc"
       inkscape:export-filename="C:\Users\simon\git\osmeditor4android\src\main\res\drawable\path3834-2.png"
       inkscape:export-xdpi="10.320819"
       inkscape:export-ydpi="10.320819" />
  </g>
</svg>
